# xmcd
#
# Track frame offsets:
#	150
#	32880
#	61128
#	83304
#	115128
#	141680
#	162031
#	191264
#	216816
#	240978
#
# Disc length: 3503 seconds
#
# Revision: 1
# Processed by: cddbd v1.5.2PL0 Copyright (c) Steve Scherf et al.
# Submitted via: EZCDAudioConverter 8.0.2.1
#
DISCID=7b0dad0a
DTITLE=Various Artist - 10 Tuyệt Phẩm Song Ca. Quê Hương
DYEAR=1997
DGENRE=country
TTITLE0=Hương Lan, Nguyễn Sơn - Sầu riêng
TTITLE1=Hương Lan, Thanh Phong - Mấy nhịp cầu tre
TTITLE2=Tuấn Vũ, Trúc Mai - Em hậu phương anh tiền tuyến
TTITLE3=Thanh THúy, Thiên Sơn - Sông quê 3
TTITLE4=Thanh Tuyền, Thanh Phong - Căn nhà màu tím
TTITLE5=Tuấn Vũ, Kiều Nga - Trúc đào
TTITLE6=Hương Lan, Nguyễn Sơn - Trên nhịp cầu tre
TTITLE7=Tuấn Vũ, Trúc Mai - Nhịp cầu tri âm
TTITLE8=Thanh Tuyền, Nguyễn Sơn - Tơ hồng
TTITLE9=Hương Lan, Nguyễn Sơn - Qua lối nhỏ
EXTD=
EXTT0=
EXTT1=
EXTT2=
EXTT3=
EXTT4=
EXTT5=
EXTT6=
EXTT7=
EXTT8=
EXTT9=
PLAYORDER=
